<?xml version="1.0" encoding="UTF-8" standalone="no"?>
<!-- Created with Inkscape (http://www.inkscape.org/) -->

<svg
   xmlns:dc="http://purl.org/dc/elements/1.1/"
   xmlns:cc="http://creativecommons.org/ns#"
   xmlns:rdf="http://www.w3.org/1999/02/22-rdf-syntax-ns#"
   xmlns:svg="http://www.w3.org/2000/svg"
   xmlns="http://www.w3.org/2000/svg"
   xmlns:sodipodi="http://sodipodi.sourceforge.net/DTD/sodipodi-0.dtd"
   xmlns:inkscape="http://www.inkscape.org/namespaces/inkscape"
   width="210mm"
   height="297mm"
   viewBox="0 0 744.09448819 1052.3622047"
   id="svg2"
   version="1.1"
   inkscape:version="0.91 r13725"
   sodipodi:docname="ryans-tree-logo.svg">
  <defs
     id="defs4" />
  <sodipodi:namedview
     id="base"
     pagecolor="#ffffff"
     bordercolor="#666666"
     borderopacity="1.0"
     inkscape:pageopacity="0.0"
     inkscape:pageshadow="2"
     inkscape:zoom="0.39537037"
     inkscape:cx="40.290284"
     inkscape:cy="429.26487"
     inkscape:document-units="px"
     inkscape:current-layer="layer1"
     showgrid="false"
     inkscape:window-width="1280"
     inkscape:window-height="751"
     inkscape:window-x="71"
     inkscape:window-y="0"
     inkscape:window-maximized="0" />
  <metadata
     id="metadata7">
    <rdf:RDF>
      <cc:Work
         rdf:about="">
        <dc:format>image/svg+xml</dc:format>
        <dc:type
           rdf:resource="http://purl.org/dc/dcmitype/StillImage" />
        <dc:title></dc:title>
      </cc:Work>
    </rdf:RDF>
  </metadata>
  <g
     inkscape:label="Layer 1"
     inkscape:groupmode="layer"
     id="layer1">
    <path
       style="fill:#73797c;fill-opacity:1"
       d="m 533.73665,1048.7343 c -29.10379,-3.9704 -58.56109,-4.5543 -87.83372,-7.0052 -6.9354,-26.6508 6.092,-52.96539 5.06786,-79.72165 4.46329,-21.49879 3.64256,-43.94865 11.45148,-64.78554 1.01543,-34.83325 10.90803,-68.76002 11.72989,-103.64678 1.58559,-8.27109 0.93343,-16.19173 -4.47034,-23.39292 -16.28999,-31.87246 -41.57276,-59.60047 -61.46382,-89.82302 -12.72359,-16.79995 -25.31367,-33.65447 -37.10023,-50.84298 -15.42241,-19.44333 -29.14139,-39.87968 -42.28443,-60.46894 -12.2884,-14.73985 -43.37896,-39.09044 -12.28445,-52.59952 25.24036,-10.97156 49.50696,10.30551 63.33095,26.45763 15.36977,18.19438 30.63037,39.21737 55.48045,48.2589 32.64682,16.60899 58.15428,42.5686 92.9458,56.21591 24.85227,-5.52609 13.97332,-35.45669 21.17751,-52.26661 3.82273,-30.70471 4.63449,-61.95285 12.75748,-92.10054 9.78616,-11.67623 55.41331,-17.4697 45.73936,8.3334 -1.0105,24.98858 -8.72921,49.4686 -8.47662,74.62655 -1.5057,40.68077 -2.02754,81.45139 -1.204,122.12782 4.023,56.20406 -0.6662,112.55996 0.48102,168.83099 1.08242,46.44314 -2.66769,93.23416 3.962,139.4296 15.58866,21.4417 -2.09031,37.8494 -29.39103,33.1493 -13.20312,0.1359 -26.4467,0.149 -39.61516,-0.7764 z"
       id="path4459"
       inkscape:connector-curvature="0" />
    <path
       style="fill:#69aa65;fill-opacity:1"
       d="m -967.4258,720.83702 c 2.19593,-0.76095 5.78929,-0.76095 7.98521,0 2.19596,0.76094 0.39926,1.38359 -3.99261,1.38359 -4.39188,0 -6.18854,-0.62265 -3.9926,-1.38359 z"
       id="path4457"
       inkscape:connector-curvature="0" />
    <g
       id="g4730"
       transform="matrix(3.3992359,0,0,2.638024,-1458.061,-584.57512)" />
    <g
       id="g4733"
       transform="matrix(2.5552709,0,0,2.194465,-1079.9324,-407.26262)" />
    <g
       id="g4870"
       transform="matrix(-1,0,0,1,743.81461,0)">
      <path
         inkscape:connector-curvature="0"
         id="path4441"
         d="m 278.13338,491.21881 c -3.09346,-3.5762 -5.70558,-10.05672 -5.80465,-14.40116 -0.35019,-15.34661 13.73366,-51.87159 25.78663,-66.87526 6.66585,-8.29781 14.29547,-17.84713 16.95474,-21.22068 2.65922,-3.37355 8.89588,-8.14925 13.85927,-10.61265 7.59997,-3.772 10.73553,-3.94201 19.86691,-1.07695 13.76207,4.31796 14.00359,11.1139 1.99829,56.22648 -10.28667,38.65466 -16.45711,50.90566 -29.57689,58.72281 -13.75188,8.19384 -35.67255,7.80582 -43.0843,-0.76259 z"
         style="fill:#69aa65;fill-opacity:1" />
      <path
         sodipodi:nodetypes="sscsscss"
         inkscape:connector-curvature="0"
         id="path4439"
         d="m 408.14159,491.33027 c -7.26411,-3.18588 -9.54017,-11.2941 -11.46345,-40.83752 -1.31987,-20.27433 -0.0497,-39.82023 2.81947,-43.43535 5.24096,-6.60021 25.30589,-13.39415 39.55769,-13.39415 12.05458,0 25.80907,35.78157 16.99279,76.18005 l -3.95114,18.10517 c -10.047,7.04362 -12.977,6.15258 -18.45566,6.45367 -14.19544,0.78017 -20.51461,-0.88549 -25.4997,-3.07187 z"
         style="fill:#69aa65;fill-opacity:1" />
      <path
         sodipodi:nodetypes="ccccccccccc"
         inkscape:connector-curvature="0"
         id="path4437"
         d="m 488.18406,489.47659 c -9.57713,-18.36937 -8.16728,-39.26607 -4.24615,-58.62535 6.47503,-22.10692 19.72754,-42.96318 38.69782,-58.96673 9.72259,-7.17452 22.57359,-13.42078 35.81031,-11.10436 7.58116,2.09685 5.93704,25.79902 5.93704,25.79902 1.30747,11.92611 2.55742,15.22689 -3.04752,29.87842 -4.0777,12.26304 -9.33792,28.03129 -9.33792,28.03129 -4.21485,8.45722 -6.01357,14.00594 -9.9018,21.19355 -4.58312,7.30992 -13.24332,16.32068 -21.66663,20.75195 -7.36462,5.1819 -17.50234,10.34953 -27.17644,6.77094 -2.02696,-0.84457 -3.72066,-2.19388 -5.06871,-3.72873 z"
         style="fill:#69aa65;fill-opacity:1" />
      <path
         sodipodi:nodetypes="sssscss"
         inkscape:connector-curvature="0"
         style="fill:#69aa65;fill-opacity:1"
         d="m 453.27977,396.96891 c -6.29179,-6.6973 -7.0286,-20.78456 -1.61685,-30.91279 4.48839,-8.40013 6.46028,-9.74832 10.44213,-7.13931 3.81113,2.49716 5.71011,8.81858 6.76267,22.51198 l -1.5225,8.56942 -1.47922,6.06359 c -1.61292,6.61165 -8.83739,4.89756 -12.58623,0.90711 z"
         id="path4433"
         transform="matrix(3.3992359,0,0,2.638024,-1458.061,-584.57512)" />
      <path
         inkscape:connector-curvature="0"
         style="fill:#69aa65;fill-opacity:1"
         d="m 493.33394,396.4922 -4.59601,-3.48342 0.48551,-17.1618 c 0.4385,-15.50062 0.88551,-17.8387 4.61829,-24.15526 4.08783,-6.91735 4.21247,-6.99249 11.45262,-6.90305 8.51455,0.10518 12.28763,2.74204 12.23026,8.54717 -0.0817,8.27135 -3.88784,43.1567 -4.80577,44.04808 -0.52898,0.51369 -4.07289,1.30696 -7.87534,1.76284 -5.884,0.70544 -7.59798,0.31013 -11.50956,-2.65456 z"
         id="path4431"
         transform="matrix(2.5552709,0,0,2.194465,-1079.9324,-407.26262)" />
      <path
         inkscape:connector-curvature="0"
         id="path4427"
         d="m 584.90951,460.23225 c -4.71061,-3.58303 -2.28399,-16.87936 5.48489,-30.05378 4.33897,-7.35807 7.44534,-16.89643 6.90297,-21.19636 -0.54235,-4.29991 2.8019,-13.24923 7.43166,-19.88733 6.68294,-9.582 10.37264,-12.06932 17.90378,-12.06932 9.47538,0 12.87215,3.7394 19.43537,21.39587 3.32261,8.93841 -14.3258,44.13549 -27.51094,54.86651 -9.97884,8.1215 -23.83371,11.36672 -29.64773,6.94441 z"
         style="fill:#69aa65;fill-opacity:1" />
      <path
         inkscape:connector-curvature="0"
         id="path4415"
         d="m 640.96853,355.76971 c -5.86584,-0.66455 -10.66516,-2.42659 -10.66516,-3.91573 0,-1.48911 -2.66101,-2.70748 -5.91336,-2.70748 -11.44931,0 -14.72304,-14.29778 -8.30047,-36.25178 3.26646,-11.16554 7.04459,-25.34341 8.39578,-31.50641 4.41172,-20.12191 20.54227,-40.44646 36.56519,-46.07237 18.18495,-6.38496 20.81089,-6.34383 29.0389,0.45501 9.1262,7.54102 9.28612,41.74208 0.3199,68.42335 -8.02745,23.88795 -27.15248,53.8375 -33.98369,53.21808 -2.63562,-0.23898 -9.5913,-0.97819 -15.45713,-1.64267 z"
         style="fill:#69aa65;fill-opacity:1" />
      <path
         sodipodi:nodetypes="ccccccccccc"
         inkscape:connector-curvature="0"
         id="path4411"
         d="m 280.65378,331.11102 c -11.93098,-14.51415 -15.16241,-17.3139 -15.53821,-40.06544 6.03124,-19.80626 15.62111,-38.90879 29.67701,-55.51572 17.13839,-22.25136 36.38376,-43.32338 57.13886,-63.14956 9.09432,-6.28531 23.0623,-0.58553 25.901,8.50484 3.46394,9.55907 0.53531,19.67518 -0.39914,29.38102 -3.56821,22.71599 -6.994,45.76286 -16.35946,67.35359 -3.45486,8.86687 -8.41479,18.41186 -12.44991,26.86133 -4.35218,10.48328 -6.44953,19.81493 -17.12397,27.82162 -4.51925,5.05252 -14.2416,10.61822 -20.94168,5.30203 -1.84196,-2.02354 -27.88377,-4.54568 -29.9045,-6.49371 z"
         style="fill:#69aa65;fill-opacity:1" />
      <path
         inkscape:connector-curvature="0"
         id="path4409"
         d="m 40.433296,336.56502 c -4.44066,-15.40377 -3.64926,-31.48626 1.06578,-46.81585 9.81228,-22.67094 9.98282,-46.56978 16.29858,-69.70625 2.47709,-7.43383 3.68599,-15.96702 11.92937,-21.62129 7.03269,-3.95931 15.9076,0.39817 20.96464,4.06856 15.482384,11.58288 25.348334,26.45349 30.041194,41.7461 2.80487,10.78043 0.4187,21.76266 0.60692,32.63727 -0.78276,12.90126 0.20163,25.90114 -2.26257,38.72095 -1.40903,7.02256 -14.54682,6.58022 -19.513054,11.97491 -10.20979,6.54899 -15.36011,17.0282 -29.58917,20.29013 -7.36564,1.21368 -17.1008,3.50206 -23.58027,-0.15251 -3.56884,-3.19254 -4.49877,-7.34768 -5.96142,-11.14202 z"
         style="fill:#69aa65;fill-opacity:1" />
      <path
         sodipodi:nodetypes="ccccccccccc"
         inkscape:connector-curvature="0"
         id="path4405"
         d="m 424.08176,355.25887 c -22.14679,-7.65401 -35.17454,-28.77853 -33.40476,-48.8143 1.06873,-23.47941 10.79991,-45.78725 19.33054,-67.85288 7.86149,-19.45863 3.57454,-33.8837 16.13039,-55.26692 26.93485,-10.98239 37.34172,-1.44591 51.08777,2.93574 8.80088,4.2611 14.06957,12.49359 17.22664,20.44097 2.11571,10.71216 -2.84552,21.18319 -4.591,31.67346 -3.62728,15.859 -9.60864,31.23272 -13.73671,46.97187 -3.28089,14.3568 -2.4745,29.04456 -3.7829,43.54607 -0.9375,7.5788 -4.61049,15.60086 -13.07885,19.11177 -10.2598,5.45294 -23.03635,9.58079 -35.18112,7.25422 z"
         style="fill:#69aa65;fill-opacity:1" />
      <path
         inkscape:connector-curvature="0"
         id="path4403"
         d="m 539.68278,328.1762 c -10.28923,-5.42486 -20.7928,-28.56017 -20.95457,-46.15489 -0.0942,-10.23056 2.00532,-13.31355 21.45579,-31.50763 43.73398,-40.90903 47.43944,-42.90685 61.47666,-33.14515 l 7.08634,4.92792 -8.4858,23.06928 c -4.66717,12.6881 -9.60529,24.35739 -10.97359,25.93171 -2.98915,3.43928 -11.83915,24.74145 -14.39452,34.64798 -2.11644,8.2048 -12.71953,20.58015 -20.82477,24.30544 -3.90735,1.79588 -8.22557,1.17313 -14.38554,-2.07466 z"
         style="fill:#69aa65;fill-opacity:1" />
      <path
         inkscape:connector-curvature="0"
         id="path4401"
         d="m 170.53655,312.43719 c -6.25147,-5.47834 -14.3192,-11.41287 -13.39223,-18.94341 -0.41859,-25.37446 3.00806,-50.8099 9.94879,-75.72228 1.90759,-9.08804 10.26306,-16.46952 18.39233,-23.34765 7.66765,-6.87614 12.07924,-15.16162 19.61638,-22.0648 8.56909,-7.59662 23.80891,-10.84237 37.19275,-8.93593 8.46752,2.88467 11.04394,9.93448 14.78824,15.42723 4.56838,7.63158 5.88973,16.13782 2.6914,24.15925 -4.89549,20.13094 -10.27898,40.25949 -19.4736,59.69948 -5.81136,12.43667 -11.54965,25.1385 -22.07767,36.10982 -5.58338,5.17867 -1.91986,12.4515 -8.12873,17.26922 -6.86377,3.91694 -16.82529,5.78287 -25.56902,4.67514 -5.87454,-1.54811 -9.83822,-5.24139 -13.98864,-8.32607 z"
         style="fill:#69aa65;fill-opacity:1" />
      <path
         inkscape:connector-curvature="0"
         id="path4385"
         d="m 662.20166,203.93954 c -0.7892,-1.86788 -3.38563,-8.10184 -5.76977,-13.85334 -2.38413,-5.75149 -4.42396,-19.19982 -4.53293,-29.8852 -0.43811,-42.96531 23.54457,-66.966638 47.36053,-47.39745 10.29549,8.45966 9.03252,58.85484 -1.87098,74.65542 -11.10074,16.08642 -31.34669,25.56902 -35.18685,16.48057 z"
         style="fill:#69aa65;fill-opacity:1" />
      <path
         inkscape:connector-curvature="0"
         id="path4383"
         d="m 576.63289,173.79171 c -3.44129,-2.15994 -8.86538,-10.04783 -12.05359,-17.5286 -5.73493,-13.45657 -5.71734,-13.81637 1.65122,-33.78151 4.09632,-11.09902 8.63675,-21.40367 10.08983,-22.899184 1.45308,-1.49552 2.64733,-5.359536 2.65391,-8.586693 0.0153,-8.104248 10.7843,-23.177502 20.72797,-29.015942 6.64414,-3.901101 9.81304,-4.224257 16.13027,-1.644971 9.87112,4.030267 19.62084,18.160647 22.28671,32.300221 2.68576,14.245439 -8.21582,42.009839 -24.02608,61.190119 -17.89938,21.71464 -26.97126,26.54999 -37.46024,19.96656 z"
         style="fill:#69aa65;fill-opacity:1" />
      <path
         inkscape:connector-curvature="0"
         id="path4373"
         d="m 481.24222,147.87559 c -6.51437,-3.63713 -10.87693,-11.32837 -10.44918,-19.46032 0.63743,-16.00717 6.83843,-30.877214 12.09318,-45.557831 5.44034,-13.247525 9.59742,-27.567024 18.14796,-38.88265 8.37853,-9.862146 19.48416,-16.090345 28.99754,-24.451608 6.34658,-5.037965 12.37748,-12.1180771 20.78664,-12.0963522 11.18755,-0.6941528 20.74756,10.3349872 21.32784,22.3407942 0.95132,7.685456 -1.4468,15.799382 -7.15027,20.576775 -12.02536,9.988372 -20.99842,23.843368 -27.97295,38.418369 -3.19881,5.608588 -2.70913,12.383843 -4.94409,18.352613 -3.16389,8.35063 -6.92966,16.54907 -8.1255,25.62364 -1.74774,5.87193 1.09008,14.07722 -4.03493,18.1484 -6.36827,2.27082 -13.27347,1.92527 -19.89967,2.17063 -6.49165,-0.15932 -13.11799,-1.51291 -18.77657,-5.18246 z"
         style="fill:#69aa65;fill-opacity:1" />
      <path
         inkscape:connector-curvature="0"
         id="path4367"
         d="m 302.68376,145.31019 c -13.46285,-5.45533 -16.36403,-17.00691 -9.1393,-36.39001 2.90424,-7.79156 7.02198,-27.734748 9.15052,-44.318122 4.78392,-37.270685 20.26041,-59.805779 41.07297,-59.805779 19.24505,0 22.97003,9.051533 18.24321,44.32951 -2.21692,16.545785 -3.07256,35.992936 -1.9014,43.215865 2.42202,14.937436 -4.89058,28.223206 -25.23779,45.853106 -15.28803,13.2463 -16.4333,13.49945 -32.18821,7.11543 z"
         style="fill:#69aa65;fill-opacity:1" />
      <path
         sodipodi:nodetypes="ccccccccccc"
         inkscape:connector-curvature="0"
         id="path4363"
         d="m 225.31092,129.4907 c -20.01707,-9.92445 -26.62798,-26.63149 -23.94821,-41.655468 2.47893,-16.499019 15.28017,-31.614299 30.75666,-45.001478 12.69719,-10.974344 25.78391,-21.96631 41.97473,-31.171717 6.56802,-5.0903705 12.00319,1.325873 11.4209,5.32759 1.39116,14.104201 -2.7371,28.27294 -9.44737,41.749741 0,0 -11.92558,37.928964 -15.63977,57.457462 -1.79267,5.89939 -7.97945,12.37209 -13.77899,17.4497 -6.15031,3.69097 -14.17097,-0.88024 -19.40739,-3.20494 l -0.9532,-0.46542 z"
         style="fill:#69aa65;fill-opacity:1" />
      <path
         inkscape:connector-curvature="0"
         id="path4361"
         d="m 385.86559,134.68386 c -9.6788,-5.86787 -9.79327,-16.58528 -8.93044,-25.44046 1.86512,-16.053914 5.53735,-31.959068 9.90876,-47.674336 1.79967,-7.407108 7.38294,-13.891907 15.30486,-17.81539 11.55008,-6.069956 22.31873,-14.458452 26.03673,-25.571773 2.87175,-4.878558 4.86719,-12.2648203 12.66015,-13.16725 10.66728,-0.3512908 18.68076,7.413824 23.00317,14.54114 5.21718,8.981682 10.07005,20.267092 3.10859,29.517024 -4.22243,4.614412 -9.7562,8.40197 -13.03854,13.619465 -15.55944,21.135421 -27.51456,43.87795 -38.2788,66.85936 -2.841,5.25247 -7.36952,12.39438 -15.73363,11.40583 -5.37262,-0.78304 -9.84949,-3.59863 -14.04085,-6.27361 z"
         style="fill:#69aa65;fill-opacity:1" />
      <path
         inkscape:connector-curvature="0"
         id="path4357"
         d="m 110.08344,171.75229 c -15.068444,-6.08083 -22.305274,-18.03553 -25.267394,-41.7397 -2.31919,-18.5589 -1.44958,-22.12846 10.29175,-42.245101 12.838724,-21.996835 28.999034,-38.190737 38.111524,-38.190737 5.96855,0 25.38055,16.740717 25.38055,21.887989 0,2.059025 3.03315,8.259923 6.7403,13.77977 15.52171,23.111379 2.77636,60.457629 -27.82779,81.540489 -7.65097,5.27068 -14.51058,9.52993 -15.24352,9.46502 -0.73296,-0.065 -6.21639,-2.08892 -12.18542,-4.49773 z"
         style="fill:#69aa65;fill-opacity:1" />
    </g>
  </g>
</svg>
